<svg xmlns="http://www.w3.org/2000/svg" width="26" height="24" fill="none" viewBox="0 0 26 24"><g filter="url(#filter0_d)"><path fill="#FF6B51" d="M5.46667 18.4972V13.4308C1.96822 13.2175 1.85401 10.6127 1.854 9.07467C1.854 8.5825 1.86156 7.52185 1.94689 4.36472C2.03222 1.20758 4.32614 0.898273 5.46667 0.898269H16.4526C20.9324 0.73828 19.8771 4.379 19.9876 8.66035C20.083 12.3589 18.5375 13.3146 16.383 13.3146L11.4396 13.4308C10.7463 14.1419 9.00778 16.0862 7.22656 17.8039C5.65198 19.3223 5.46667 19.0875 5.46667 18.4972Z"/><path stroke="#FF6B51" stroke-width=".15" d="M5.46667 18.4972V13.4308C1.96822 13.2175 1.85401 10.6127 1.854 9.07467C1.854 8.5825 1.86156 7.52185 1.94689 4.36472C2.03222 1.20758 4.32614 0.898273 5.46667 0.898269H16.4526C20.9324 0.73828 19.8771 4.379 19.9876 8.66035C20.083 12.3589 18.5375 13.3146 16.383 13.3146L11.4396 13.4308C10.7463 14.1419 9.00778 16.0862 7.22656 17.8039C5.65198 19.3223 5.46667 19.0875 5.46667 18.4972Z"/></g><g filter="url(#filter1_d)"><path fill="#FF6B51" d="M14.0915 15.1159H11.3739L9.66345 16.7952H13.391L17.3562 20.6887C18.6004 21.83 19.0326 20.4036 19.0326 19.5908V16.7952H20.3442C23.3548 16.7952 24.095 14.4025 24.1454 12.7151C24.1958 11.0276 23.9917 5.85316 23.9464 5.20964C23.8478 3.80862 21.8268 3.4718 21.1231 3.4718V5.20964C22.5121 5.20964 22.4299 6.02107 22.4299 6.79635V12.3204C22.4299 14.6373 21.7697 15.1159 20.3442 15.1159H17.2697L17.3388 18.4323L14.0915 15.1159Z"/><path stroke="#FF6B51" stroke-width=".15" d="M14.0915 15.1159H11.3739L9.66345 16.7952H13.391L17.3562 20.6887C18.6004 21.83 19.0326 20.4036 19.0326 19.5908V16.7952H20.3442C23.3548 16.7952 24.095 14.4025 24.1454 12.7151C24.1958 11.0276 23.9917 5.85316 23.9464 5.20964C23.8478 3.80862 21.8268 3.4718 21.1231 3.4718V5.20964C22.5121 5.20964 22.4299 6.02107 22.4299 6.79635V12.3204C22.4299 14.6373 21.7697 15.1159 20.3442 15.1159H17.2697L17.3388 18.4323L14.0915 15.1159Z"/></g><g filter="url(#filter2_d)"><circle cx="14.961" cy="7.042" r="1.275" fill="#FDDFDD"/><circle cx="14.961" cy="7.042" r="1.2" stroke="#FDDFDD" stroke-width=".15"/></g><g filter="url(#filter3_d)"><circle cx="6.916" cy="7.042" r="1.275" fill="#FDDFDD"/><circle cx="6.916" cy="7.042" r="1.2" stroke="#FDDFDD" stroke-width=".15"/></g><g filter="url(#filter4_d)"><circle cx="10.921" cy="7.042" r="1.275" fill="#FDDFDD"/><circle cx="10.921" cy="7.042" r="1.2" stroke="#FDDFDD" stroke-width=".15"/></g><defs><filter id="filter0_d" width="20.318" height="20.208" x=".779" y=".818" color-interpolation-filters="sRGB" filterUnits="userSpaceOnUse"><feFlood flood-opacity="0" result="BackgroundImageFix"/><feColorMatrix in="SourceAlpha" values="0 0 0 0 0 0 0 0 0 0 0 0 0 0 0 0 0 0 127 0"/><feOffset dy="1"/><feGaussianBlur stdDeviation=".5"/><feColorMatrix values="0 0 0 0 0 0 0 0 0 0 0 0 0 0 0 0 0 0 0.25 0"/><feBlend in2="BackgroundImageFix" result="effect1_dropShadow"/><feBlend in="SourceGraphic" in2="effect1_dropShadow" result="shape"/></filter><filter id="filter1_d" width="16.748" height="19.793" x="8.48" y="3.397" color-interpolation-filters="sRGB" filterUnits="userSpaceOnUse"><feFlood flood-opacity="0" result="BackgroundImageFix"/><feColorMatrix in="SourceAlpha" values="0 0 0 0 0 0 0 0 0 0 0 0 0 0 0 0 0 0 127 0"/><feOffset dy="1"/><feGaussianBlur stdDeviation=".5"/><feColorMatrix values="0 0 0 0 0 0 0 0 0 0 0 0 0 0 0 0 0 0 0.25 0"/><feBlend in2="BackgroundImageFix" result="effect1_dropShadow"/><feBlend in="SourceGraphic" in2="effect1_dropShadow" result="shape"/></filter><filter id="filter2_d" width="4.551" height="4.551" x="12.685" y="5.767" color-interpolation-filters="sRGB" filterUnits="userSpaceOnUse"><feFlood flood-opacity="0" result="BackgroundImageFix"/><feColorMatrix in="SourceAlpha" values="0 0 0 0 0 0 0 0 0 0 0 0 0 0 0 0 0 0 127 0"/><feOffset dy="1"/><feGaussianBlur stdDeviation=".5"/><feColorMatrix values="0 0 0 0 0 0 0 0 0 0 0 0 0 0 0 0 0 0 0.25 0"/><feBlend in2="BackgroundImageFix" result="effect1_dropShadow"/><feBlend in="SourceGraphic" in2="effect1_dropShadow" result="shape"/></filter><filter id="filter3_d" width="4.551" height="4.551" x="4.64" y="5.767" color-interpolation-filters="sRGB" filterUnits="userSpaceOnUse"><feFlood flood-opacity="0" result="BackgroundImageFix"/><feColorMatrix in="SourceAlpha" values="0 0 0 0 0 0 0 0 0 0 0 0 0 0 0 0 0 0 127 0"/><feOffset dy="1"/><feGaussianBlur stdDeviation=".5"/><feColorMatrix values="0 0 0 0 0 0 0 0 0 0 0 0 0 0 0 0 0 0 0.25 0"/><feBlend in2="BackgroundImageFix" result="effect1_dropShadow"/><feBlend in="SourceGraphic" in2="effect1_dropShadow" result="shape"/></filter><filter id="filter4_d" width="4.551" height="4.551" x="8.645" y="5.767" color-interpolation-filters="sRGB" filterUnits="userSpaceOnUse"><feFlood flood-opacity="0" result="BackgroundImageFix"/><feColorMatrix in="SourceAlpha" values="0 0 0 0 0 0 0 0 0 0 0 0 0 0 0 0 0 0 127 0"/><feOffset dy="1"/><feGaussianBlur stdDeviation=".5"/><feColorMatrix values="0 0 0 0 0 0 0 0 0 0 0 0 0 0 0 0 0 0 0.25 0"/><feBlend in2="BackgroundImageFix" result="effect1_dropShadow"/><feBlend in="SourceGraphic" in2="effect1_dropShadow" result="shape"/></filter></defs></svg>